<svg width="82" height="24" viewBox="0 0 82 24" fill="none" xmlns="http://www.w3.org/2000/svg">
<path d="M31 10.5V0H40V1.5H41.5V6H40V7.5H34V10.5H31ZM34 6H38.5V1.5H34V6ZM43 10.5V7.5H44.5V6H46V4.5H49V3H50.5V1.5H46V3H43V1.5H44.5V0H52V1.5H53.5V4.5H52V6H50.5V7.5H47.5V9H53.5V10.5H43ZM55 10.5V0H64V1.5H65.5V6H64V7.5H58V10.5H55ZM58 6H62.5V1.5H58V6ZM32.5 22.5V21H35.5V13.5H32.5V12H41.5V13.5H38.5V21H41.5V22.5H32.5ZM43 22.5V19.5H44.5V18H46V16.5H47.5V15H49V13.5H43V12H53.5V15H52V16.5H50.5V18H49V19.5H47.5V21H53.5V22.5H43ZM55 22.5V19.5H56.5V18H58V16.5H59.5V15H61V13.5H55V12H65.5V15H64V16.5H62.5V18H61V19.5H59.5V21H65.5V22.5H55ZM67 22.5V15H68.5V13.5H70V12H74.5V13.5H76V15H77.5V22.5H74.5V19.5H70V22.5H67ZM70 18H74.5V15H73V13.5H71.5V15H70V18Z" fill="#DEDEDE"/>
<path d="M13.1993 4.2993C13.1553 4.36341 13.1565 4.63682 13.1664 4.99219L23.8116 8.41103C23.7732 8.18634 23.7591 7.96165 23.808 7.7293C23.8641 7.46328 24.0213 7.20899 24.2819 6.98399C24.0625 6.88185 23.8147 6.77909 23.5428 6.67928C22.7185 6.37658 21.6848 6.0836 20.5855 5.80047C18.4139 5.24125 15.9987 4.72217 14.3226 4.1797C14.0366 4.11035 13.3812 4.03635 13.1993 4.2993ZM12.5216 5.5362L11.8061 6.52885C11.9315 6.58267 12.0508 6.64636 12.1625 6.71911C12.5772 6.99041 12.8664 7.39636 12.8664 7.8555C12.8664 8.31465 12.5772 8.72054 12.1625 8.99193C11.7478 9.26323 11.2012 9.41788 10.606 9.41788C10.3223 9.41788 10.0499 9.38235 9.79742 9.31622L6.99821 13.2004C7.20399 13.2708 7.40854 13.3742 7.60408 13.5166C8.03524 13.781 8.33403 14.0865 8.46559 14.3969C8.59714 14.7074 8.55593 15.0556 8.18993 15.2971C7.82393 15.5385 7.27826 15.5777 6.78583 15.5054C6.38246 15.4463 5.98022 15.3157 5.61104 15.1252L3.24295 18.4112L14.3622 13.4709C14.1876 13.4377 14.0163 13.3927 13.85 13.3361C13.2562 13.1349 12.7615 12.8113 12.4269 12.417C12.0922 12.0227 11.9039 11.5178 12.0677 11.0348C12.2315 10.5518 12.6883 10.2656 13.1938 10.156C13.6993 10.0464 14.2891 10.0904 14.8828 10.2916C15.4766 10.4929 15.9714 10.8165 16.3061 11.2108C16.6031 11.5608 16.7842 11.9977 16.7068 12.4292L23.9558 9.20836L12.6186 5.56742L12.5216 5.5362ZM11.124 7.05848C10.305 7.68252 9.48583 8.75559 10.606 8.71434C11.0328 8.71434 11.4117 8.59813 11.6667 8.4313C11.9216 8.26443 12.0474 8.07624 12.0474 7.85554C12.0474 7.63481 11.8548 7.43008 11.6665 7.27983C11.5199 7.16274 11.4836 7.10201 11.1239 7.05853L11.124 7.05848ZM24.9878 7.37736C24.7286 7.54049 24.6504 7.68234 24.614 7.85467C24.5838 8.21492 24.6977 8.67341 24.7519 8.88095C24.7733 8.96309 24.9481 9.37672 24.8572 9.41757C17.6381 12.6651 10.4191 15.9125 3.19995 19.1602L3.21336 19.8857C10.4325 16.6382 18.0182 13.2883 25.2373 10.0408L25.6 9.87764C25.5865 9.59684 25.5734 9.51418 25.5481 9.33337C25.5531 9.14201 25.537 8.89309 25.5038 8.64258C25.4705 8.39204 25.4201 8.1381 25.3614 7.93403C25.3039 7.73375 25.2182 7.57523 25.2092 7.56248C25.154 7.50422 25.0792 7.442 24.9878 7.37736ZM13.7842 10.8583C13.627 10.8562 13.4818 10.8701 13.3547 10.8976C13.0156 10.9711 12.8408 11.1192 12.7868 11.2785C12.7327 11.4378 12.7814 11.6615 13.0059 11.9259C13.2302 12.1904 13.6166 12.4557 14.0938 12.6174C14.571 12.7792 15.0392 12.8034 15.3782 12.73C15.7172 12.6566 15.8919 12.5085 15.9459 12.3492C16 12.1899 15.9514 11.9661 15.727 11.7017C15.5026 11.4373 15.1161 11.172 14.639 11.0102C14.3407 10.9091 14.046 10.8617 13.7841 10.8583L13.7842 10.8583ZM6.66661 13.8643C6.36644 13.8602 6.17059 14.1873 6.03084 14.5548C6.35077 14.7511 6.71503 14.8736 6.99944 14.9154C7.28389 14.9571 7.4371 14.9228 7.50569 14.8776C7.57413 14.8324 7.6224 14.7337 7.54644 14.5544C7.47048 14.3751 7.2646 14.1482 6.94446 13.952C6.843 13.8926 6.75071 13.8654 6.66661 13.8643Z" fill="white"/>
</svg>
